<?xml version="1.0" encoding="UTF-8" standalone="no"?>
<!-- Generator: Adobe Illustrator 16.0.0, SVG Export Plug-In . SVG Version: 6.00 Build 0)  -->

<svg
   xmlns:dc="http://purl.org/dc/elements/1.1/"
   xmlns:cc="http://creativecommons.org/ns#"
   xmlns:rdf="http://www.w3.org/1999/02/22-rdf-syntax-ns#"
   xmlns:svg="http://www.w3.org/2000/svg"
   xmlns="http://www.w3.org/2000/svg"
   xmlns:sodipodi="http://sodipodi.sourceforge.net/DTD/sodipodi-0.dtd"
   xmlns:inkscape="http://www.inkscape.org/namespaces/inkscape"
   version="1.1"
   id="Capa_1"
   x="0px"
   y="0px"
   width="753.23px"
   height="753.23px"
   viewBox="0 0 753.23 753.23"
   style="enable-background:new 0 0 753.23 753.23;"
   xml:space="preserve"
   inkscape:version="0.91 r"
   sodipodi:docname="bin-open.svg"><metadata
     id="metadata44"><rdf:RDF><cc:Work
         rdf:about=""><dc:format>image/svg+xml</dc:format><dc:type
           rdf:resource="http://purl.org/dc/dcmitype/StillImage" /><dc:title></dc:title></cc:Work></rdf:RDF></metadata><defs
     id="defs42" /><sodipodi:namedview
     pagecolor="#ffffff"
     bordercolor="#666666"
     borderopacity="1"
     objecttolerance="10"
     gridtolerance="10"
     guidetolerance="10"
     inkscape:pageopacity="0"
     inkscape:pageshadow="2"
     inkscape:window-width="1920"
     inkscape:window-height="1030"
     id="namedview40"
     showgrid="true"
     inkscape:object-paths="true"
     inkscape:object-nodes="true"
     inkscape:snap-intersection-paths="true"
     inkscape:snap-smooth-nodes="true"
     inkscape:snap-midpoints="true"
     inkscape:zoom="0.62663464"
     inkscape:cx="396.68412"
     inkscape:cy="371.88591"
     inkscape:window-x="0"
     inkscape:window-y="0"
     inkscape:window-maximized="1"
     inkscape:current-layer="g6" /><g
     id="g3"><g
       id="_x34__19_"><g
         id="g6"><g
           id="g4318"><path
             id="path8"
             d="M 306 0 C 279.99 0 258.92383 21.066172 258.92383 47.076172 L 258.92383 94.154297 L 117.69336 94.154297 C 91.683359 94.154297 70.615234 115.22047 70.615234 141.23047 L 70.615234 188.30859 C 70.615234 214.29459 91.683359 235.38477 117.69336 235.38477 L 164.76953 235.38477 L 588.46094 235.38477 L 635.53906 235.38477 C 661.54906 235.38477 682.61523 214.29459 682.61523 188.30859 L 682.61523 141.23047 C 682.61423 115.22147 661.54711 94.154297 635.53711 94.154297 L 494.30859 94.154297 L 494.30859 47.076172 C 494.30859 21.066172 473.24047 0 447.23047 0 L 306 0 z M 329.53711 47.076172 L 423.69141 47.076172 C 436.68441 47.076172 447.23047 57.621234 447.23047 70.615234 L 447.23047 94.154297 L 306 94.154297 L 306 70.615234 C 306 57.622234 316.54411 47.076172 329.53711 47.076172 z M 141.23047 141.23047 L 612 141.23047 C 624.993 141.23047 635.53711 151.77553 635.53711 164.76953 C 635.53711 177.76353 624.993 188.30859 612 188.30859 L 141.23047 188.30859 C 128.23747 188.30859 117.69141 177.76353 117.69141 164.76953 C 117.69141 151.77553 128.23747 141.23047 141.23047 141.23047 z M 117.69336 328.25781 L 117.69336 659.07617 C 117.69336 711.07217 159.85066 753.23047 211.84766 753.23047 L 541.38672 753.23047 C 593.38272 753.23047 635.53906 711.07217 635.53906 659.07617 L 635.53906 328.25781 L 588.46094 328.25781 L 588.46094 659.07617 C 588.46094 685.06217 567.39477 706.15234 541.38477 706.15234 L 211.8457 706.15234 C 185.8357 706.15234 164.76953 685.06217 164.76953 659.07617 L 164.76953 328.25781 L 117.69336 328.25781 z M 258.92383 329.53711 C 245.92983 329.53711 235.38477 340.08217 235.38477 353.07617 L 235.38477 635.53711 C 235.38477 648.53011 245.93083 659.07617 258.92383 659.07617 C 271.91683 659.07617 282.46289 648.53011 282.46289 635.53711 L 282.46289 353.07617 C 282.46289 340.08317 271.91783 329.53711 258.92383 329.53711 z M 376.61523 329.53711 C 363.62223 329.53711 353.07617 340.08217 353.07617 353.07617 L 353.07617 635.53711 C 353.07717 648.53011 363.62223 659.07617 376.61523 659.07617 C 389.60823 659.07617 400.15234 648.53011 400.15234 635.53711 L 400.15234 353.07617 C 400.15234 340.08317 389.60823 329.53711 376.61523 329.53711 z M 494.30859 329.53711 C 481.31559 329.53711 470.76953 340.08217 470.76953 353.07617 L 470.76953 635.53711 C 470.76953 648.53011 481.31459 659.07617 494.30859 659.07617 C 507.30159 659.07617 517.8457 648.53011 517.8457 635.53711 L 517.8457 353.07617 C 517.8457 340.08317 507.30159 329.53711 494.30859 329.53711 z " /></g></g></g></g><g
     id="g10" /><g
     id="g12" /><g
     id="g14" /><g
     id="g16" /><g
     id="g18" /><g
     id="g20" /><g
     id="g22" /><g
     id="g24" /><g
     id="g26" /><g
     id="g28" /><g
     id="g30" /><g
     id="g32" /><g
     id="g34" /><g
     id="g36" /><g
     id="g38" /></svg>