<?xml version="1.0" encoding="UTF-8" standalone="no"?>
<!-- Generator: Adobe Illustrator 16.0.0, SVG Export Plug-In . SVG Version: 6.00 Build 0)  -->

<svg
   xmlns:dc="http://purl.org/dc/elements/1.1/"
   xmlns:cc="http://creativecommons.org/ns#"
   xmlns:rdf="http://www.w3.org/1999/02/22-rdf-syntax-ns#"
   xmlns:svg="http://www.w3.org/2000/svg"
   xmlns="http://www.w3.org/2000/svg"
   xmlns:sodipodi="http://sodipodi.sourceforge.net/DTD/sodipodi-0.dtd"
   xmlns:inkscape="http://www.inkscape.org/namespaces/inkscape"
   version="1.1"
   id="Capa_1"
   x="0px"
   y="0px"
   width="638.922px"
   height="638.922px"
   viewBox="0 0 638.922 638.922"
   style="enable-background:new 0 0 638.922 638.922;"
   xml:space="preserve"
   inkscape:version="0.91 r"
   sodipodi:docname="double-up-arrows.svg"><metadata
     id="metadata4285"><rdf:RDF><cc:Work
         rdf:about=""><dc:format>image/svg+xml</dc:format><dc:type
           rdf:resource="http://purl.org/dc/dcmitype/StillImage" /><dc:title></dc:title></cc:Work></rdf:RDF></metadata><defs
     id="defs4283" /><sodipodi:namedview
     pagecolor="#ffffff"
     bordercolor="#666666"
     borderopacity="1"
     objecttolerance="10"
     gridtolerance="10"
     guidetolerance="10"
     inkscape:pageopacity="0"
     inkscape:pageshadow="2"
     inkscape:window-width="1920"
     inkscape:window-height="1030"
     id="namedview4281"
     showgrid="false"
     inkscape:zoom="1.2348925"
     inkscape:cx="319.461"
     inkscape:cy="319.461"
     inkscape:window-x="0"
     inkscape:window-y="0"
     inkscape:window-maximized="1"
     inkscape:current-layer="Capa_1" /><g
     id="g4244"
     transform="matrix(0,1,-1,0,638.922,-1.5574574e-5)"><g
       id="_x34__6_"><g
         id="g4247"><path
           d="M 75.829,319.46 349.65,45.719 c 10.46,-10.46 10.46,-27.414 0,-37.874 -10.459,-10.46 -27.44,-10.46 -37.9,0 L 21.001,298.487 c -5.749,5.749 -8.038,13.441 -7.452,20.973 -0.586,7.533 1.703,15.198 7.452,20.973 l 290.723,290.644 c 10.46,10.46 27.44,10.46 37.9,0 10.46,-10.46 10.46,-27.414 0,-37.901 L 75.829,319.46 Z m 321.57,0 220.218,-220.137 c 10.46,-10.46 10.46,-27.415 0,-37.901 -10.46,-10.46 -27.44,-10.46 -37.9,0 L 342.571,298.487 c -5.749,5.749 -8.038,13.441 -7.452,20.973 -0.586,7.533 1.703,15.198 7.452,20.973 L 579.717,577.5 c 10.46,10.459 27.44,10.459 37.9,0 10.46,-10.46 10.46,-27.415 0,-37.875 L 397.399,319.46 Z"
           id="path4249"
           inkscape:connector-curvature="0" /></g></g></g><g
     id="g4251" /><g
     id="g4253" /><g
     id="g4255" /><g
     id="g4257" /><g
     id="g4259" /><g
     id="g4261" /><g
     id="g4263" /><g
     id="g4265" /><g
     id="g4267" /><g
     id="g4269" /><g
     id="g4271" /><g
     id="g4273" /><g
     id="g4275" /><g
     id="g4277" /><g
     id="g4279" /></svg>