<?xml version="1.0" encoding="UTF-8" standalone="no"?>
<svg
   xmlns:dc="http://purl.org/dc/elements/1.1/"
   xmlns:cc="http://creativecommons.org/ns#"
   xmlns:rdf="http://www.w3.org/1999/02/22-rdf-syntax-ns#"
   xmlns:svg="http://www.w3.org/2000/svg"
   xmlns="http://www.w3.org/2000/svg"
   xmlns:sodipodi="http://sodipodi.sourceforge.net/DTD/sodipodi-0.dtd"
   xmlns:inkscape="http://www.inkscape.org/namespaces/inkscape"
   version="1.1"
   id="Capa_1"
   x="0px"
   y="0px"
   width="612px"
   height="612px"
   viewBox="0 0 612 612"
   style="enable-background:new 0 0 612 612;"
   xml:space="preserve"
   shape-rendering="crispEdges"
   inkscape:version="0.91 r"
   sodipodi:docname="drag-handle.svg"><sodipodi:namedview
     pagecolor="#ffffff"
     bordercolor="#666666"
     borderopacity="1"
     objecttolerance="10"
     gridtolerance="10"
     guidetolerance="10"
     inkscape:pageopacity="0"
     inkscape:pageshadow="2"
     inkscape:window-width="1920"
     inkscape:window-height="1030"
     id="namedview4273"
     showgrid="false"
     inkscape:object-paths="true"
     inkscape:snap-intersection-paths="true"
     inkscape:object-nodes="true"
     inkscape:snap-smooth-nodes="true"
     inkscape:snap-midpoints="true"
     inkscape:zoom="0.91161315"
     inkscape:cx="539.51205"
     inkscape:cy="225.43115"
     inkscape:window-x="0"
     inkscape:window-y="0"
     inkscape:window-maximized="1"
     inkscape:current-layer="Capa_1" /><metadata
     id="metadata3548"><rdf:RDF><cc:Work
         rdf:about=""><dc:format>image/svg+xml</dc:format><dc:type
           rdf:resource="http://purl.org/dc/dcmitype/StillImage" /><dc:title></dc:title></cc:Work></rdf:RDF></metadata><defs
     id="defs3546" /><g
     transform="translate(623.07131,189.77348)"
     style="fill:#000000;fill-opacity:1"
     id="g4490"><g
       style="fill:#000000;fill-opacity:1"
       id="g4498"
       transform="matrix(0,-1,1,0,-742.62815,617.6182)"><path
         id="path4504"
         style="opacity:1;fill:#000000;fill-opacity:1;fill-rule:nonzero"
         d="m 674.84414,533.42094 0,-107.86409 0,-107.86409 66.27377,53.93204 66.27377,53.93205 -66.27377,53.93204 z m -346.90491,-215.72819 0,107.8641 0,107.86409 -66.27377,-53.93205 -66.27378,-53.93204 66.27378,-53.93205 z m 10e-6,77.61313 346.9049,0 0,60.50191 -346.9049,0 z m 65.58836,203.70341 107.86409,0 107.86408,0 -53.93205,66.27378 -53.93203,66.27377 -53.93205,-66.27377 z m 215.72816,-346.9049 -107.86408,0 -107.86409,0 53.93204,-66.27377 53.93205,-66.27378 53.93204,66.27377 z m -77.61313,0 0,346.9049 -60.5019,0 0,-346.9049 z"
         inkscape:connector-curvature="0" /></g></g></svg>