<?xml version="1.0" encoding="UTF-8" standalone="no"?>
<svg
   xmlns:dc="http://purl.org/dc/elements/1.1/"
   xmlns:cc="http://creativecommons.org/ns#"
   xmlns:rdf="http://www.w3.org/1999/02/22-rdf-syntax-ns#"
   xmlns:svg="http://www.w3.org/2000/svg"
   xmlns="http://www.w3.org/2000/svg"
   xmlns:sodipodi="http://sodipodi.sourceforge.net/DTD/sodipodi-0.dtd"
   xmlns:inkscape="http://www.inkscape.org/namespaces/inkscape"
   version="1.1"
   id="Capa_1"
   x="0px"
   y="0px"
   width="612px"
   height="612px"
   viewBox="0 0 612 612"
   style="enable-background:new 0 0 612 612;"
   xml:space="preserve"
   shape-rendering="crispEdges"
   inkscape:version="0.91 r"
   sodipodi:docname="info.svg"><sodipodi:namedview
     pagecolor="#ffffff"
     bordercolor="#666666"
     borderopacity="1"
     objecttolerance="10"
     gridtolerance="10"
     guidetolerance="10"
     inkscape:pageopacity="0"
     inkscape:pageshadow="2"
     inkscape:window-width="1920"
     inkscape:window-height="1030"
     id="namedview4273"
     showgrid="false"
     inkscape:object-paths="true"
     inkscape:snap-intersection-paths="true"
     inkscape:object-nodes="true"
     inkscape:snap-smooth-nodes="true"
     inkscape:snap-midpoints="true"
     inkscape:zoom="0.91161315"
     inkscape:cx="386.98121"
     inkscape:cy="243.7846"
     inkscape:window-x="0"
     inkscape:window-y="0"
     inkscape:window-maximized="1"
     inkscape:current-layer="Capa_1" /><metadata
     id="metadata3548"><rdf:RDF><cc:Work
         rdf:about=""><dc:format>image/svg+xml</dc:format><dc:type
           rdf:resource="http://purl.org/dc/dcmitype/StillImage" /><dc:title /></cc:Work></rdf:RDF></metadata><defs
     id="defs3546" /><g
     id="g4177"
     transform="translate(-0.04674339,-3.3558877e-8)"><g
       transform="translate(0,24.080139)"
       id="g4171"><g
         id="g4162"><path
           transform="matrix(0,-1,1,0,0,0)"
           style="opacity:1;fill:#000000;fill-opacity:1;fill-rule:nonzero;stroke:#000000;stroke-width:0.37416571;stroke-opacity:1"
           d="m -36.38665,66.187851 36.1995658,0 0,77.708379 -36.1995658,0 z"
           id="rect4683-1" /><path
           transform="scale(-1,-1)"
           style="opacity:1;fill:#000000;fill-opacity:1;fill-rule:nonzero;stroke:#000000;stroke-width:1.00697744;stroke-opacity:1"
           d="m -65.497276,-563.33624 36.199566,0 0,562.832761 -36.199566,0 z"
           id="rect4683-1-2" /></g><path
         transform="matrix(0,-1,1,0,0,0)"
         style="opacity:1;fill:#000000;fill-opacity:1;fill-rule:nonzero;stroke:#000000;stroke-width:0.37416571;stroke-opacity:1"
         d="m -563.65265,66.187851 36.19957,0 0,77.708379 -36.19957,0 z"
         id="rect4683-1-0" /></g><g
       transform="translate(0,24.080139)"
       id="g4166"><path
         transform="matrix(0,-1,1,0,0,0)"
         style="opacity:1;fill:#000000;fill-opacity:1;fill-rule:nonzero;stroke:#000000;stroke-width:0.37416571;stroke-opacity:1"
         d="m -563.65265,468.19727 36.19957,0 0,77.70838 -36.19957,0 z"
         id="rect4764" /><path
         transform="scale(-1,-1)"
         style="opacity:1;fill:#000000;fill-opacity:1;fill-rule:nonzero;stroke:#000000;stroke-width:1.00697744;stroke-opacity:1"
         d="m -582.79578,-563.33624 36.19957,0 0,562.832761 -36.19957,0 z"
         id="rect4766" /><path
         transform="matrix(0,-1,1,0,0,0)"
         style="opacity:1;fill:#000000;fill-opacity:1;fill-rule:nonzero;stroke:#000000;stroke-width:0.37416571;stroke-opacity:1"
         d="m -36.38665,468.19727 36.1995658,0 0,77.70838 -36.1995658,0 z"
         id="rect4768" /></g><g
       transform="matrix(3.2443212,0,0,3.2443212,-267.28486,-256.56912)"
       style="font-style:normal;font-weight:normal;font-size:40px;line-height:125%;font-family:sans-serif;letter-spacing:0px;word-spacing:0px;fill:#000000;fill-opacity:1;stroke:none;stroke-width:1px;stroke-linecap:butt;stroke-linejoin:miter;stroke-opacity:1"
       id="flowRoot4907"><path
         d="m 163.125,217.87383 17.8418,0 0,22.32422 -17.8418,0 0,-22.32422 z m 17.31445,-12.91992 -16.78711,0 0,-13.53515 q 0,-8.87696 2.46094,-14.58985 2.46094,-5.71289 10.37109,-13.27148 l 7.91016,-7.82227 q 5.00977,-4.6582 7.20703,-8.78906 2.28516,-4.13086 2.28516,-8.4375 0,-7.82227 -5.80078,-12.65625 -5.71289,-4.83399 -15.20508,-4.83399 -6.94336,0 -14.85352,3.07618 -7.82226,3.07617 -16.34765,8.96484 l 0,-16.52344 q 8.26172,-5.00976 16.69922,-7.4707 8.52539,-2.46094 17.57812,-2.46094 16.17188,0 25.92774,8.52539 9.84375,8.52539 9.84375,22.5 0,6.67969 -3.16407,12.74414 -3.16406,5.97657 -11.07422,13.53516 l -7.73437,7.55859 q -4.13086,4.13086 -5.88867,6.50391 -1.66992,2.28516 -2.37305,4.48242 -0.52734,1.8457 -0.79102,4.48242 -0.26367,2.63672 -0.26367,7.20703 l 0,10.81055 z"
         style="font-size:180px"
         id="path4211" /></g></g></svg>